<svg width="54" height="41" viewBox="0 0 54 41" fill="none" xmlns="http://www.w3.org/2000/svg">
<g clip-path="url(#clip0_3101_448)">
<path d="M19.9706 18.7247C20.806 16.9888 21.6439 15.2538 22.4758 13.5163C23.3303 11.73 24.1561 9.92994 25.0401 8.15936C25.4933 7.25019 25.6809 6.32104 25.6271 5.31549C25.4664 2.34136 23.0003 0.19826 20.0592 0.569916C17.5887 0.882525 15.8433 2.29621 14.7031 4.44974C13.9607 5.85126 13.3242 7.30837 12.6469 8.74376C12.0199 10.0732 11.34 11.3784 10.7799 12.7391C10.7122 12.8659 10.6392 12.9909 10.5776 13.1203C8.95375 16.5156 7.32297 19.9074 5.71217 23.3078C4.16476 26.5729 2.64079 29.8492 1.10033 33.1177C0.68178 34.006 0.541107 34.9325 0.622732 35.9042C0.85632 38.6656 3.21651 40.695 5.96921 40.4483C8.57341 40.2148 10.3735 38.7481 11.4685 36.4774C13.1757 32.9371 14.849 29.3785 16.5545 25.8374C17.6955 23.4676 18.8322 21.0961 19.9706 18.7255V18.7247Z" fill="#FB923C"/>
<path d="M52.7068 32.5845C51.6839 30.5005 50.6957 28.3982 49.6927 26.3046C49.302 25.4892 48.9086 24.6746 48.517 23.8601C47.864 22.4803 47.2153 21.0979 46.558 19.7198C44.6927 15.8131 42.8232 11.9089 40.9553 8.00393C40.4091 6.86117 39.8499 5.72362 39.3202 4.57305C38.6299 3.07427 37.5791 1.91241 36.1194 1.14478C34.0119 0.0358861 31.6014 0.380624 29.9367 1.99924C28.365 3.52668 27.9777 5.85475 28.9503 7.87802C31.5119 13.2106 34.0666 18.5458 36.63 23.8766C37.4628 25.6081 38.3129 27.331 39.1552 29.0581C39.1648 29.0998 39.1665 29.1458 39.1847 29.184C40.3874 31.7309 41.5588 34.2934 42.8067 36.8178C43.5847 38.3921 44.8395 39.5149 46.505 40.121C49.3072 41.1413 52.2257 39.8179 53.1097 37.1278C53.6238 35.563 53.4301 34.0564 52.7077 32.5845H52.7068Z" fill="#FB923C"/>
<path d="M27.1911 12.2068C27.146 12.1147 27.139 11.9714 26.9532 11.974C26.1778 13.5614 25.3902 15.1531 24.6208 16.7526C23.7637 18.5353 22.9232 20.3259 22.0748 22.113C22.0452 22.1625 22.0105 22.2094 21.9862 22.2615C20.2686 25.8877 18.5466 29.5114 16.8368 33.142C16.4565 33.9504 16.2828 34.811 16.3045 35.7106C16.3749 38.643 18.9018 40.8365 21.7969 40.457C24.0407 40.1635 25.6133 38.8827 26.7769 37.0175C27.0982 36.5025 27.3084 35.9329 27.5654 35.3867C28.1741 34.092 28.7724 32.7929 29.3742 31.4956C30.5951 29.0833 31.6163 26.5772 32.8094 24.1519C32.8997 23.9678 32.8441 23.8271 32.766 23.6656C30.9068 19.8466 29.0512 16.0258 27.192 12.2076L27.1911 12.2068Z" fill="#FB923C"/>
</g>
<defs>
<clipPath id="clip0_3101_448">
<rect width="52.7987" height="40" fill="white" transform="translate(0.600586 0.5)"/>
</clipPath>
</defs>
</svg>
